<svg xmlns="http://www.w3.org/2000/svg" viewBox="0 0 64 64">
  <defs>
    <linearGradient id="mindquest-gradient" x1="100%" y1="0%" x2="0%" y2="100%">
      <stop offset="0%" stop-color="#4f46e5"/>
      <stop offset="50%" stop-color="#6759f0"/>
      <stop offset="100%" stop-color="#8b5cf6"/>
    </linearGradient>
  </defs>
  <rect x="4" y="4" width="56" height="56" rx="16" fill="url(#mindquest-gradient)"/>
  <path fill="#ffffff" d="M32 14c-7.18 0-13 5.82-13 13v2.2a3.8 3.8 0 0 0-2.2 3.45c0 1.86 1.32 3.43 3.1 3.8l.1.02c.02 0 .04.01.06.01v2.52c0 4.79 3.29 8.78 7.73 9.75V46a3 3 0 0 1 4.04-2.84l3.66 1.22a5.1 5.1 0 0 0 1.6.26h.38c3.84 0 6.97-3.13 6.97-6.97v-2.32c1.92-.18 3.43-1.8 3.43-3.77 0-1.61-.97-3.07-2.43-3.63l-.07-.03V29c0-7.18-5.82-13-13-13zm-1.85 23.52A3 3 0 0 1 27 44.35v2.27c-2.71-.88-4.66-3.44-4.66-6.34v-3.11a3.8 3.8 0 0 0 2.22-3.47 3.8 3.8 0 0 0-2.22-3.47V27c0-5.89 4.77-10.66 10.66-10.66S44.66 21.11 44.66 27v3.45c1.28.66 2.22 1.95 2.22 3.47 0 2.15-1.63 3.86-3.73 3.99l-.7.04v4.01c0 2.54-2.07 4.61-4.61 4.61h-.38c-.3 0-.61-.05-.9-.14l-3.66-1.22a1.37 1.37 0 0 0-1.79 1.3v1.9c-1.89-.47-3.4-1.89-4.06-3.78l-.09-.27z"/>
</svg>
